/* XPM */
static char *_6385e9a21944aa19347a357fb7fdb36Ittzup14xwNv9lWw[] = {
/* columns rows colors chars-per-pixel */
"32 32 6 1 ",
"  c #34202B",
". c #4B2C36",
"X c #6F3F45",
"o c #A05B53",
"O c #BF7958",
"+ c white",
/* pixels */
"OOoOOooOoooOoooo......          ",
"OOoOOoOOOooOoooo. X... ...      ",
"OOoOOXOOOooOoooX. X... ....     ",
"OOoOOXOOOoOOoooX..X. . ....     ",
"OOoOOXOOOoOOooooo.X.   ...      ",
"OOXOO.OOOoOOooooo.X. . ...      ",
"OOXXX.OOOoOOooooo X. . ...      ",
"OOXOO.OOOoOoooooo .. . ...  .   ",
"OOoOOXoOOoOooooo..   . ... ...  ",
"OOoOOoOOOXoooooo..Xoo. ... ...  ",
"OOoOOoOOOXXXXooo..ooo. ... ...  ",
"oooOOoOOOXoOoooo..ooo. ... ...  ",
"OOoOOoOOOoOOOooXX.ooo. ..  ...  ",
"OOOOOoOOOoOOOX.XXXooo. XX  ...  ",
"OOOOOoOOOoOOOooXoXooX. XX  ...  ",
"OOOOOoOOOoOOOooooXoXX. XX  ...  ",
"OOoOOooOooOOOoooo.XXX. XX  ...  ",
"OOoOOoOOOoOOOoooo.ooX. XX. ...  ",
"OOoOOXOOOoOOOoooo.ooX. XX.....  ",
"OOoOOXOOOoOOOoooo.oXX. XX.....  ",
"OOoOOXOOOoOOooooo.XXX  X..  .   ",
"OOXOO.OOOoOOooooo.XXX  ...      ",
"OOXOO.OOOoOOooooo.XXX  X..      ",
"OOXOO.OOOoOoooooo .X.  ...      ",
"OOoOOXoOOoOoooooo      ...      ",
"OOoOOoOOOooooXooX XX   ...      ",
"OOoOOoOOOooXXXXX. XX   ...      ",
"+ooOOoOOOooOoooX. XX.. ...      ",
"OOoOOoOOOoOOOooX. X... ..       ",
"OOOOOoOOOoOOOooX.  ...          ",
"OOOOOoOOOoOOoooX.  ...          ",
"OOOOOoOOOoOooooX.. ...          "
};
