/* XPM */
static char * exit_xpm[] = {
"64 64 294 2",
"  	c #985F4A",
". 	c #AA6B51",
"+ 	c #AB6C51",
"@ 	c #AA6B50",
"# 	c #A96B4F",
"$ 	c #AD6C51",
"% 	c #B47055",
"& 	c #B87257",
"* 	c #B67156",
"= 	c #B16F54",
"- 	c #AD6D53",
"; 	c #A96B50",
"> 	c #A66750",
", 	c #A25F52",
"' 	c #A15B53",
") 	c #A05B53",
"! 	c #9E5A52",
"~ 	c #985650",
"{ 	c #93544F",
"] 	c #91524D",
"^ 	c #8F514C",
"/ 	c #8E514B",
"( 	c #804643",
"_ 	c #62383C",
": 	c #477272",
"< 	c #AC6C52",
"[ 	c #BF7958",
"} 	c #C07A58",
"| 	c #BD7758",
"1 	c #B97457",
"2 	c #B77257",
"3 	c #AF6B55",
"4 	c #9F5D51",
"5 	c #955550",
"6 	c #955450",
"7 	c #965550",
"8 	c #864946",
"9 	c #63383C",
"0 	c #417A79",
"a 	c #AE6D53",
"b 	c #BA7557",
"c 	c #B06B56",
"d 	c #AA6455",
"e 	c #A96454",
"f 	c #AA6555",
"g 	c #A05E52",
"h 	c #8B504C",
"i 	c #7E4849",
"j 	c #7E4749",
"k 	c #7F4849",
"l 	c #723D40",
"m 	c #543037",
"n 	c #366D6D",
"o 	c #AF6E54",
"p 	c #BA7457",
"q 	c #B46F56",
"r 	c #AD6855",
"s 	c #A76254",
"t 	c #A25D53",
"u 	c #985751",
"v 	c #884D4C",
"w 	c #7A4548",
"x 	c #724146",
"y 	c #6E3F45",
"z 	c #6F3F45",
"A 	c #6E3E44",
"B 	c #693C42",
"C 	c #5D323A",
"D 	c #462932",
"E 	c #306464",
"F 	c #B06A55",
"G 	c #B36E56",
"H 	c #B26C56",
"I 	c #A66154",
"J 	c #9F5A53",
"K 	c #9D5952",
"L 	c #8C4F4D",
"M 	c #6E3E45",
"N 	c #5D353D",
"O 	c #4E2933",
"P 	c #3E252F",
"Q 	c #306363",
"R 	c #985651",
"S 	c #794547",
"T 	c #61373F",
"U 	c #533039",
"V 	c #462430",
"W 	c #3B232E",
"X 	c #B26D56",
"Y 	c #884D4B",
"Z 	c #6B3D41",
"` 	c #4D2D37",
" .	c #94544E",
"..	c #824A48",
"+.	c #63393D",
"@.	c #4B2C36",
"#.	c #4A2B36",
"$.	c #3B242E",
"%.	c #95554F",
"&.	c #7B4645",
"*.	c #533038",
"=.	c #4A2C36",
"-.	c #AE6855",
";.	c #874D4A",
">.	c #653A3E",
",.	c #734245",
"'.	c #5A343B",
").	c #A96A4F",
"!.	c #A46053",
"~.	c #AB6953",
"{.	c #A46153",
"].	c #8C504D",
"^.	c #8D504D",
"/.	c #4E2D37",
"(.	c #9A5951",
"_.	c #90554D",
":.	c #6D3E44",
"<.	c #7D4749",
"[.	c #6D3E45",
"}.	c #673B41",
"|.	c #56323A",
"1.	c #724046",
"2.	c #673B42",
"3.	c #A2644E",
"4.	c #A86254",
"5.	c #9B5951",
"6.	c #A26052",
"7.	c #94584D",
"8.	c #8B544B",
"9.	c #8A534A",
"0.	c #8A534B",
"a.	c #93584D",
"b.	c #95584C",
"c.	c #A35E54",
"d.	c #734146",
"e.	c #B57156",
"f.	c #AF6D54",
"g.	c #90524C",
"h.	c #995751",
"i.	c #BB7657",
"j.	c #B47155",
"k.	c #B06E54",
"l.	c #5D363D",
"m.	c #502A34",
"n.	c #432832",
"o.	c #366465",
"p.	c #93534E",
"q.	c #B37155",
"r.	c #9B604F",
"s.	c #60333B",
"t.	c #502E37",
"u.	c #3F6666",
"v.	c #8A544B",
"w.	c #794548",
"x.	c #814B49",
"y.	c #87504A",
"z.	c #89534A",
"A.	c #A16052",
"B.	c #A35E53",
"C.	c #865148",
"D.	c #6C3D44",
"E.	c #67383F",
"F.	c #436767",
"G.	c #8B4E4D",
"H.	c #94544F",
"I.	c #9C5B50",
"J.	c #A86752",
"K.	c #B16C56",
"L.	c #A96455",
"M.	c #7D4D44",
"N.	c #683B42",
"O.	c #703F45",
"P.	c #68383F",
"Q.	c #A26152",
"R.	c #794B41",
"S.	c #5F363E",
"T.	c #B87357",
"U.	c #C07958",
"V.	c #B16E54",
"W.	c #94594E",
"X.	c #512F39",
"Y.	c #AF6A55",
"Z.	c #482A36",
"`.	c #A66254",
" +	c #9B5B50",
".+	c #482A35",
"++	c #9C5951",
"@+	c #A25E53",
"#+	c #4E2E37",
"$+	c #5E363D",
"%+	c #693C43",
"&+	c #90524D",
"*+	c #814A49",
"=+	c #67373E",
"-+	c #BE7858",
";+	c #65363D",
">+	c #4D2C35",
",+	c #60373F",
"'+	c #5D313A",
")+	c #4F2934",
"!+	c #3F252F",
"~+	c #462631",
"{+	c #305A5B",
"]+	c #452832",
"^+	c #2F3F43",
"/+	c #462933",
"(+	c #2F1D2A",
"_+	c #301B29",
":+	c #8E504B",
"<+	c #9F5E52",
"[+	c #301E2A",
"}+	c #311F2A",
"|+	c #321F2A",
"1+	c #AF6E53",
"2+	c #663A41",
"3+	c #88514A",
"4+	c #A86852",
"5+	c #A46550",
"6+	c #764741",
"7+	c #492B36",
"8+	c #54303A",
"9+	c #95544F",
"0+	c #824B4A",
"a+	c #9C5C51",
"b+	c #97594E",
"c+	c #6F4140",
"d+	c #33202B",
"e+	c #784A41",
"f+	c #9E5D51",
"g+	c #6B3D3F",
"h+	c #34202B",
"i+	c #90514D",
"j+	c #6A3D3F",
"k+	c #492A36",
"l+	c #B16B56",
"m+	c #8A4E4C",
"n+	c #7A4647",
"o+	c #633940",
"p+	c #5B343C",
"q+	c #543039",
"r+	c #472A34",
"s+	c #6B423C",
"t+	c #975E49",
"u+	c #8D504B",
"v+	c #804946",
"w+	c #5F373B",
"x+	c #492B35",
"y+	c #4A2B35",
"z+	c #422731",
"A+	c #39232D",
"B+	c #91534D",
"C+	c #714042",
"D+	c #55313A",
"E+	c #402630",
"F+	c #4D2F32",
"G+	c #653F38",
"H+	c #70463B",
"I+	c #71463B",
"J+	c #71473B",
"K+	c #6D433A",
"L+	c #653C39",
"M+	c #613739",
"N+	c #603739",
"O+	c #583236",
"P+	c #472931",
"Q+	c #36212C",
"R+	c #844B48",
"S+	c #663A3E",
"T+	c #5C353D",
"U+	c #4A2C35",
"V+	c #714043",
"W+	c #5C353C",
"X+	c #4A2B34",
"Y+	c #35202B",
"Z+	c #331F2B",
"`+	c #311E2A",
" @	c #301D2A",
".@	c #35212C",
"+@	c #64393F",
"@@	c #57323B",
"#@	c #452831",
"$@	c #63383F",
"%@	c #673A41",
"&@	c #3A232D",
"*@	c #3F2630",
"=@	c #643940",
"-@	c #39222D",
";@	c #653940",
">@	c #4D2D35",
",@	c #5A333B",
"'@	c #442831",
")@	c #3C242E",
"!@	c #452932",
"~@	c #492B33",
"  . + @ # $ % & & & & * = - + . . @ # $ % & & * = - + ; # ; @ . . . . @ # $ % & & & & * = - + . . @ # > , ' ) ! ~ { ] ^ / ( _ : ",
"< [ } | 1 2 2 & & & & & & & & & & & & & & & & & & & & & & & & & & & & & & & & & & & & & & & & & & & & 3 4 5 6 5 5 5 5 7 5 8 9 0 ",
"a } } b c d e e e e e e e d f f f f f d e e e e e d f f f f f f f f f f f d e e e e e e e d f f f f f g h i j i k k k k k l m n ",
"o | p q r s t ) ) ) ) ) ) ) ) ) ) ) ) ) ) ) ) ) ) ) ) ) ) ) ) ) ) ) ) ) ) ) ) ) ) ) ) ) ) ) ) ) ) ) ) u v w x y y z z A B C D E ",
"o 1 F r G H I ) J ) ) ) ) ) ) ) ) ) ) ) ) ) ) ) ) ) ) ) ) ) ) ) ) ) ) ) ) ) ) ) ) ) ) ) ) ) ) ) ) ) ) K ~ L w y M z y B N O P Q ",
"o 2 d s H q r s t ) ) ) ) ) ) ) ) ) ) ) ) ) ) ) ) ) ) ) ) ) ) ) ) ) ) ) ) ) ) ) ) ) ) ) ) ) ) ) ) ) ) ) ) R v k i S A T U V W E ",
"o 2 e t I r q X s ) ) ) ) ) ) ) ) ) ) ) ) ) ) ) ) ) ) ) ) ) ) ) ) ) ) ) ) ) ) ) ) ) ) ) ) ) ) ) ) ) ) ) ) ! u 7 5 Y Z U ` V W E ",
"a & d ) ) s X q r s t ) ) ) ) ) ) ) ) ) ) ) ) ) ) ) ) ) ) ) ) ) ) ) ) ) ) ) ) ) ) ) ) ) ) ) ) ) ) ) ) ) ) ) ) K  ...+.@.#.V $.E ",
"< & f ) J t s r q X s ) ) ) ) ) ) ) ) ) ) ) ) ) ) ) ) ) ) ) ) ) ) ) ) ) ) ) ) ) ) ) ) ) ) ) ) ) ) ) ) ) ) ' ) %.&.+.*.@.=.V $.E ",
"@ & f ) ) ) ) s X q -.s t ) ) ) ) ) ) ) ) ) ) ) ) ) ) ) ) ) ) ! u 5 5 5 5 5 5 u ! ) ) ) ) ) ) ) ) ) ) ) ) ! u ;.>.@.#.@.@.V $.E ",
"; & f ) ) ) ) t s r q X s ) ) ) ) ) ) ) ) ) ) ) ) ) ) ) ) ) ) R v i j i i j i v R ) ) ) ) ) ) ) ) ) ) ) ) u v ,.'.#.#.@.@.V $.E ",
").& f ) ) ) ) ) ) !.~.~.{.) ) ) ) ) ) ) ) ) ) ) ) ) ) ) ) ! R ].w z z z z z z w ].R ! ) ) ) ) ) ) ) ) ! u ^.w B N U /.@.@.V $.E ",
").& f ) ) ) ) ) ) (._._.(.) ) ) ) ) ) ) ) ) ) ) ) ) ) ) ) u v w x y y y y y y x w v u ) ) ) ) ) ) ) ) u v w x :.B T U @.@.V $.E ",
"# & f ) ) ) ) ' ) 5 i w L u ! ) ) ) ) ) ) ) ) ) ) ) ) ) ) 6 <.M [.M M M M M M [.M <.6 ) ) ) ) ) ) ! u ].w z z z z }.|.@.@.V $.E ",
").& f ) ) ) ) ) ) 5 <.1.w v u ) ) ) ) ) ) ) ) ) ) ) ) ) ) 5 j z y z z z z z z y z j 5 ) ) ) ) ) ) u v w x z z z z 2.|.@.@.V $.E ",
"3.X 4.) ) ' ) ! u ].w z z w ].5.!.e d d d d d d d d d f d 6.7.8.9.0.0.0.0.0.0.9.0.a.6.e e e e !.5.].w z z z z z z }.|.@.=.V W E ",
"b.s c.) ) ) ) u v w d.z y 1.w _.~.& & & & & & & & & & & & e.= f.f.f.f.f.f.f.f.f.f.= e.& & & & ~._.w 1.z z z z z z }.|.@.@.V $.E ",
"g.K h.5 5 7 5 ].w z z z z M z 0.f.i.j.f.a a a a a a a a a a a k.e.2 2 2 2 2 2 2 2 2 2 2 2 p | o 0.z M z z z z z z B l.|.|.m.n.o.",
"p.~ v i j i i w d.z z z z M z 0.o q.r.0.9.0.0.0.0.0.0.0.0.9.8.7.6.d f d d d d d d e e e e c p o 9.z M z z z z z z :.B 2.}.s.t.u.",
"5 5 k z y z z z z z z z z [.y v.f.f.8.d.w.i i i i j i x.y.z.0.a.A.e e e e e e e e e e I B.f & - C.B D.z z z z z z z z z z E.|.F.",
"5 5 i y M y y z z z z z z M z 8.f.a 0.w.G.H.6 H.H.H.H.I.J.a a k.e.2 2 2 2 2 2 2 2 2 2 K.I L.2 + M.l.N.z z z z z z z z O.z P.|.F.",
"5 5 k z y z z z z z z d.w <.i 7.= a 8.i H.) ) ) ) ) ) e 2 [ [ [ [ [ [ [ [ [ [ [ [ } [ e.6.Q.e.. R.U S.}.2.}.}.B :.z z z z E.|.F.",
"5 5 k z y z z z z z z w ].6 7 6.e.a v.i 6 ) ' ) ) ) ) e T.U.} U.[ [ [ [ [ [ [ [ [ } [ V.a.W.k.. R./.X.|.|.|.|.l.B z z z z E.|.F.",
"u 5 k z y z z z z d.w v u ) ) d & a 0.i H.) ) ) ) t s Y.p [ [ [ [ [ [ [ [ [ [ | p T.2 J.y.8.a . R.@.Z.@.@.=.@.|.}.z z z z E.|.F.",
"K 5 i z y z z z z w ].u ! ) ' f & a 0.i H.) ) ) ) `.X p | [ [ [ [ [ [ [ [ [ [ p Y.e e  +x.8.a . R.@..+@.@.=.@.|.}.z z z z E.|.F.",
"++5 i z y z z y z i 5 ) ) ) ) d & a 0.j H.t s I @+`.X p | [ [ [ [ [ [ [ [ | p X `.) ) H.i 8.a . R.@.Z.#+U |.|.$+%+z z z z E.|.F.",
" .5 k z y z z y z i 7 ) ' ) ) d & a 0.j H.s X X s t s Y.p [ [ [ [ [ [ [ [ p Y.`.t ) ) H.j 8.a . R.@.Z.U T }.2.B :.z z z z E.|.F.",
"&+5 k z y z z y z i 7 ) ' ) ) d & a 0.*+I.Y.p 2 e J J e 2 [ [ [ [ [ [ [ [ 2 e ) ) ) ) H.i 8.a . R.@.Z.|.2.z O.:.B B :.O.z =+U u.",
"&+5 k z y z z y z i 5 ) ) ) ) d & a 0.y.J.p -+& e ) J e 2 [ [ [ [ [ [ [ [ 2 e ) ) ) ) H.i 8.a . R.@.Z.|.2.O.O.B $+l.B z z ;+>+o.",
"&+5 k z y z z z z w ].u ! ) ' f & a 0.0.a [ U.p Y.e e Y.p [ [ [ [ [ [ [ [ p Y.`.t ) ) H.j 8.a . R.@.Z.U T 2.2.,+U U ,+2.2.'+D E ",
"&+5 k z y z z z z d.w v u ) ) d & a 0.0.a [ } | p 2 2 p | [ [ [ [ [ [ [ [ | p X `.) ) H.i 8.a . R.@.Z.#+U |.|.U /./.U |.|.)+!+E ",
"&+5 k z y z z z z z z w ].6 7 6.e.a v.0.a [ U.[ [ [ [ [ [ [ [ [ [ [ [ [ [ [ [ p Y.e e  +x.8.a . R.@.Z.@.@.@.@.@.@.@.@.@.@.~+$.{+",
"&+5 k z y z z z z z z d.w <.i 7.= a 8.0.a [ U.[ [ [ [ [ [ [ [ [ [ [ [ [ [ [ [ | p T.2 J.y.8.a . R.@.Z.@.@.@.@.@.@.@.@.@.@.]+W ^+",
"^ 5 k z y z z z z z z z z M z 8.f.a v.z.a [ U.[ [ [ [ [ [ [ [ [ [ [ [ [ [ [ [ [ [ } [ = a.W.V.. R.@.Z.@.@.@.@.@.@.@.@.@.@./+$.(+",
"/ 5 k z y z z z z z z z z [.y v.f.a 8.0.a [ U.[ [ [ [ [ [ [ [ [ [ [ [ [ [ [ [ [ [ } [ e.6.Q.e.. R.@.Z.@.@.@.@.@.@.@.@.@.@./+$._+",
":+5 k z y z z z z z z z z M z 8.f.k.7.a.k.[ U.[ [ [ [ [ [ [ [ [ [ [ [ [ [ [ [ | p & 2 3 <+Q.e.. R.@.Z.@.@.@.@.@.@.@.@.@.@./+$.[+",
":+5 k z y z z z z z z z z M z v.f.e.6.A.e.[ [ [ [ [ [ [ [ [ [ [ [ [ [ [ [ [ [ p Y.e e 4 h W.= . R.@.Z.@.@.@.@.@.@.@.@.@.@./+$.[+",
":+5 k z y z z z z z z z z M z 0.f.2 d e 2 [ [ [ [ [ [ [ [ | p 2 2 p | [ [ | p X `.) ) H.i 8.a . R.@.Z.@.@.@.@.@.@.@.@.@.@./+$.}+",
":+5 k z y z z z z z z z z M z 0.f.2 f e 2 [ [ [ [ [ [ [ [ p Y.e e Y.p [ [ p Y.`.t ) ) H.j 8.a . R.@.Z.@.@.@.@.@.@.@.@.@.@./+$.|+",
":+5 k z y z z z z z z z z M z v.f.2 d e 2 [ [ [ [ [ [ | p X `.) ) `.X p -+& e ) ) ) ) H.i 8.1++ R.@.Z.@.@.@.@.@.@.@.@.@.@./+$.|+",
":+5 k z y z z z z z z z z M z 0.f.2 d e 2 [ [ [ [ [ [ p Y.`.t ) ) t `.Y.p 2 e ) ) ) ) H.i 8.a . R.@.Z.@.@.@.@.@.@.@.@.@.@./+$.}+",
":+5 k z y z z z z :.B }.}.2+}.C.a 2 d e 2 [ } [ [ } [ & e ) ) ) ) ) ) s X X s ) ) ' ) 6 i 3+4+5+6+@.7+@.@.@.@.@.@.@.@.@.@./+$.}+",
":+5 k z y z z z z B l.|.|.8+|.M.+ 2 f e 2 [ [ [ [ [ [ 2 e ) ) ) ) ) ) t `.s @+) ) ) ) 9+i 0+a+b+c+@.7+@.@.@.@.@.@.@.@.@.@./+$.d+",
":+5 k z y z z :.B T U @.@.Z.@.e+. 2 L.I K.2 2 2 2 & 2 3 f+H.H.H.H.H.H.H.9+%.%.%.%.5 %.L w k %.&+g+@.7+@.@.@.@.@.@.@.@.@.@./+$.h+",
":+5 k z y z z B l.U ` @.=..+@.e+. 2 f t I e e e e e e <+h i j i i i i j j j j i i i i w d.k 6 i+j+@.7+@.@.@.@.@.@.@.@.@.@./+$.h+",
":+5 k z z O.z 2.|.@.=.@.@.k+@.R.+ b l+f d f f f f f f Q.W.8.8.8.8.8.8.3+0+k k k k k k k k m+h.&+g+@.7+@.@.@.@.@.@.@.@.@.@./+$.h+",
":+5 k z y z z }.|.@.=.@.@.Z.@.e+. | p 2 2 2 2 2 2 2 2 e.V.a a a a 1+a 4+a+%.H.%.%.9+%.%.5 h.K &+j+@.7+@.@.@.@.@.@.@.@.@.@./+$.h+",
"/ H.n+}.2+2.}.o+p+q+/.@.@..+r+s+t+).# ).).).).).).).).).).).).).).# ).3.b.:+u+:+:+:+:+:+:+/ :+v+w+r+x+@.@.@.@.@.@.y+r+/+/+z+A+h+",
":+B+C+|.D+|.|.p+o+T q+@.@.r+E+F+G+H+I+H+H+H+H+H+H+H+H+H+I+I+I+I+I+J+I+K+L+M+M+M+M+M+M+M+M+M+N+O+P+E+r+@.@.@.@.@.@.r+E+$.W A+Q+h+",
"R+;.S+@.#.@.@.q+T o+T+U U+z+A+h+h+h+h+h+h+h+h+h+h+h+h+h+h+h+h+h+h+h+h+h+h+h+h+h+h+h+h+h+h+h+h+h+h+A+z+r+y+@.@.y+r+z+A+h+h+h+h+h+",
"V+,.W+@.#.=.@./.q+T+o+$+X+A+Y+Z+`+ @ @ @ @ @ @ @ @ @ @ @ @ @ @ @ @ @ @[+`+}+}+}+}+}+}+}+}+}+}+|+d+.@A+E+r+@.@.r+E+A+.@h+h+h+h+h+",
"+@}.@@@.@.@.@.@.@.U $+'.#@h+d+h+h+h+h+h+h+h+h+h+h+h+h+h+h+h+h+h+h+h+h+h+h+h+h+h+h+h+h+h+h+h+h+h+h+h+h+A+z+r+y+/+$.h+h+h+h+h+h+h+",
"$@%@@@@.@.@.@.@.@.U+X+#@&@h+h+h+h+h+h+h+h+h+h+h+h+h+h+h+h+h+h+h+h+h+h+h+h+h+h+h+h+h+h+h+h+h+h+h+h+h+h+.@A+E+r+/+$.h+h+h+h+h+h+h+",
"+@}.@@@.@.@.@.y+r+z+A+h+h+h+h+h+h+h+h+h+h+h+h+h+h+h+h+h+h+h+h+h+h+h+h+h+h+h+h+h+h+h+h+h+h+h+h+h+h+h+h+h+h+A+z+z+A+h+h+h+h+h+h+h+",
"+@}.@@@.@.@.@.r+E+A+Y+d+h+h+h+h+h+h+h+h+h+h+h+h+h+h+h+h+h+h+h+h+h+h+h+h+h+h+h+h+h+h+h+h+h+h+h+h+h+h+h+h+h+Q+A+A+Q+h+h+h+h+h+h+h+",
"+@}.@@@.@.y+r+z+A+h+h+h+h+h+h+h+h+h+h+h+h+h+h+h+h+h+h+h+h+h+h+h+h+h+h+h+h+h+h+h+h+h+h+h+h+h+h+h+h+h+h+h+h+h+h+h+h+h+h+h+h+h+h+h+",
"+@}.@@@.@.r+E+A+.@h+h+h+h+h+h+h+h+h+h+h+h+h+h+h+h+h+h+h+h+h+h+h+h+h+h+h+h+h+h+h+h+h+h+h+h+h+h+h+h+h+h+h+h+h+h+h+h+h+h+h+h+h+h+h+",
"+@2.@@y+r+z+A+h+h+h+h+h+h+h+h+h+h+h+h+h+h+h+h+h+h+h+h+h+h+h+h+h+h+h+h+h+h+h+h+h+h+h+h+h+h+h+h+h+h+h+h+h+h+h+h+h+h+h+h+h+h+h+h+h+",
"+@2.@@r+*@A+.@h+h+h+h+h+h+h+h+h+h+h+h+h+h+h+h+h+h+h+h+h+h+h+h+h+h+h+h+h+h+h+h+h+h+h+h+h+h+h+h+h+h+h+h+h+h+h+h+h+h+h+h+h+h+h+h+h+",
"=@%@q+z+-@h+h+h+h+h+h+h+h+h+h+h+h+h+h+h+h+h+h+h+h+h+h+h+h+h+h+h+h+h+h+h+h+h+h+h+h+h+h+h+h+h+h+h+h+h+h+h+h+h+h+h+h+h+h+h+h+h+h+h+",
"+@;@>@A+Y+h+h+h+h+h+h+h+h+h+h+h+h+h+h+h+h+h+h+h+h+h+h+h+h+h+h+h+h+h+h+h+h+h+h+h+h+h+h+h+h+h+h+h+h+h+h+h+h+h+h+h+h+h+h+h+h+h+h+h+",
",@,@#@h+d+h+h+h+h+h+h+h+h+h+d+d+d+d+h+h+h+h+h+h+h+h+h+h+h+h+h+h+h+h+h+h+h+h+h+h+h+h+h+h+h+h+h+h+d+d+d+d+h+h+h+h+h+h+h+h+h+h+h+h+",
"'@'@&@h+h+h+h+h+h+h+h+h+h+h+h+h+h+h+h+h+h+h+h+h+h+h+h+h+h+h+h+h+h+h+h+h+h+h+h+h+h+h+h+h+h+h+h+h+h+h+h+h+h+h+h+h+h+h+h+h+h+h+h+h+",
"h+h+h+h+h+h+h+h+h+h+h+h+h+)@!@~@~@!@)@h+h+h+h+h+h+h+h+h+h+h+h+h+h+h+h+h+h+h+h+h+h+h+h+h+h+h+h+)@!@~@~@!@)@h+h+h+h+h+h+h+h+h+h+h+"};
