/* XPM */
static char * field_xpm[] = {
"64 64 135 2",
"  	c #216A1E",
". 	c #226C1F",
"+ 	c #20681E",
"@ 	c #1B5B19",
"# 	c #154D14",
"$ 	c #144A13",
"% 	c #144B13",
"& 	c #195617",
"* 	c #1F661D",
"= 	c #216B1F",
"- 	c #1F641C",
"; 	c #195717",
"> 	c #165115",
", 	c #184F14",
"' 	c #275F18",
") 	c #247321",
"! 	c #267522",
"~ 	c #257422",
"{ 	c #237020",
"] 	c #1A5A18",
"^ 	c #185517",
"/ 	c #1F651C",
"( 	c #236E20",
"_ 	c #257322",
": 	c #257522",
"< 	c #1C5E1A",
"[ 	c #175316",
"} 	c #134A13",
"| 	c #247121",
"1 	c #1F651D",
"2 	c #164F15",
"3 	c #144C13",
"4 	c #154E14",
"5 	c #185416",
"6 	c #1D611B",
"7 	c #236F20",
"8 	c #1D601B",
"9 	c #165015",
"0 	c #21691E",
"a 	c #1F671D",
"b 	c #185617",
"c 	c #1E641C",
"d 	c #175115",
"e 	c #154C14",
"f 	c #154F14",
"g 	c #164F14",
"h 	c #1D621B",
"i 	c #1D5F1A",
"j 	c #175216",
"k 	c #1C5D1A",
"l 	c #1E621B",
"m 	c #247221",
"n 	c #1B5C19",
"o 	c #226E20",
"p 	c #267623",
"q 	c #154C13",
"r 	c #1C5F1A",
"s 	c #1A5818",
"t 	c #124912",
"u 	c #237021",
"v 	c #20671D",
"w 	c #1A5918",
"x 	c #175215",
"y 	c #164D14",
"z 	c #1D5415",
"A 	c #1E631C",
"B 	c #185818",
"C 	c #1C5416",
"D 	c #35721E",
"E 	c #1B611B",
"F 	c #205A18",
"G 	c #448724",
"H 	c #134912",
"I 	c #215B18",
"J 	c #458924",
"K 	c #267723",
"L 	c #1E671E",
"M 	c #23601A",
"N 	c #458A25",
"O 	c #1E621C",
"P 	c #267523",
"Q 	c #297D26",
"R 	c #2C8429",
"S 	c #267925",
"T 	c #287020",
"U 	c #479027",
"V 	c #1B5D1A",
"W 	c #195818",
"X 	c #247021",
"Y 	c #2A7F27",
"Z 	c #308D2D",
"` 	c #2C872A",
" .	c #2D7F26",
"..	c #459229",
"+.	c #1B5D19",
"@.	c #1A5A19",
"#.	c #267724",
"$.	c #30902E",
"%.	c #308B2B",
"&.	c #398B29",
"*.	c #257423",
"=.	c #32942F",
"-.	c #31912E",
";.	c #2E882A",
">.	c #134A12",
",.	c #308F2D",
"'.	c #339430",
").	c #32932F",
"!.	c #2F8E2D",
"~.	c #277925",
"{.	c #2C862A",
"].	c #2F8D2D",
"^.	c #31922F",
"/.	c #38962F",
"(.	c #21691F",
"_.	c #277C27",
":.	c #32902E",
"<.	c #449E30",
"[.	c #0F4812",
"}.	c #185115",
"|.	c #367B22",
"1.	c #4E9E2C",
"2.	c #5FAF2F",
"3.	c #0A4512",
"4.	c #205414",
"5.	c #528E21",
"6.	c #72B92B",
"7.	c #7CC72D",
"8.	c #104813",
"9.	c #154B13",
"0.	c #2E6016",
"a.	c #4A801C",
"b.	c #6BA924",
"c.	c #83C92B",
"d.	c #8AD22C",
"  . . . + @ # $ % % % % % % % % % % % % % % % % % % % % % % % % % % % % % % % % % % % % % % % % % % % & * . . . = - @ ; ; > , ' ",
") ! ~ { + ] # $ % % % % % % % % % % % % % % % % % % % % % % % % % % % % % % % % % % % % % % % % % % % ^ / ( _ : ~ . < [ # % % } ",
"_ : | 1 ; 2 3 % % % % % % % % % % % % % % % % % % % % % % % % % % % % % % % % % % % % % % % % % % % % 4 5 6 7 ~ ~ | . 8 9 $ % } ",
"0   a ] # $ % % % % % % % % % % % % % % % % % % % % % % % % % % % % % % % % % % % % % % % % % % % % % $ % b c 0 0   + < 9 $ % % ",
"^ ^ 5 9 % % % % % % % % % % % % % % % % % % % % % % % % % % % % % % % % % % % % % % % % % % % % % % % % % 4 [ ^ ^ ^ ^ d e % % % ",
"$ $ $ % % % % % % % % % % % % % % % % % % % % % % % % % % % % % % % % % % % % % % % % % % % % % % % % % % % $ $ $ $ $ % % % % % ",
"% % % % % % % % % % % % % % % % % % % % % % % % % % % % % % % % % % % % % % % % % % % % % % % % % % % % % % % % % % % % % % % % ",
"% % % % % % % % % % % % % % % % % % % % % % % % % % % % % % % % % % % % % % % % % % % % % % % % % % % % % % % % % % % % % % % % ",
"% % % % % % % % % % % % % % % % % % % % % % % % % % % % % % % % % % % % % % % % % % % % % % % % % % % % % % % % % % % % % % % % ",
"% % % % % % % % % % % % % % % % % % % % % % % % % % % % % % % % % % % % % % % % % % % % % % % % % % % % % % % % % % % % % % % % ",
"% % % % % % % % % % % % % % % % % % % % % % % % % % % % % % % % % % % % % % % % % % % % % % % % % % % % % % % % % % % % % % % % ",
"% % % % % % % % % % % % % % % % % % % % % % % % % % % % % % % % % % % % % % % % % % % % % % % % % % % % % % % % % % % % % % % % ",
"% % % % % % % % % % % % % % % % % % % % % % % % % % % % % % % % % % % % % % % % % % % % % % % % % % % % % % % % % % % % % % % % ",
"% % % % % % % % % % % % % % % % % % % % % % % % % % % % % % % % % % % % % % % % % % % % % % % % % % % % % % % % % % % % % % % % ",
"% % % % % % % % % % % % % % % % % % % % % % % % % % % % % % % % % % % % % % % % % % % % % % % % % % % % % % % % % % % % % % % % ",
"% % % % % % % % % % % % % % % % % % % % % % % % % % % % % % % % % % % % % % % % % % % % % % % % % % % % % % % % % % % % % % % % ",
"% % % % % % % % % % % % % % % % % % % % % % % % % % % % % % % % % % % % % % % % % % % % % % % % % % % % % % % % % % % % % % % % ",
"% % % % % % % % % % % % % % % % % % % % % % % % % % % % % % % % % % % % % % % % % % % % % % % % % % % % % % % % % % % % % % % % ",
"% % % % % % % % % % % % % % % % % % % % % % % % % % % % % % % % % % % % % % % % % % % % % % % % % % % % % % % % % % % % % % % % ",
"% % % % % % % % % % % % % % % % % % % % % % % % % % % % % % % % % % % % % % % % % % % % % % % % % % % % % % % % % % % % % % % % ",
"% % % % % % % % % % % % % % % % % % % % % % % % % % % % % % % % % % % % % % % % % % % % % % % % % % % % % % % % % % % % % % % % ",
"% % % % % % % % % % % % % % % % % % % % % % % % % % % % % % % % % % % % % % % % % % % % % % % % % % % % % % % % % % % % % % % % ",
"% % % % % % % % % % % % % % % % % % % % % % % % % % % % % % % % % % % % % % % % % % % % % % % % % % % % % % % % % % % % % % % % ",
"% % % % % % % % % % % % % % % % % % % % % % % % % % % % % % % % % % % % % % % % % % % % % % % % % % % % % % % % % % % % % % % % ",
"% % % % % % % % % % % % % % % % % % % % % % % % % % % % % % % % % % % % % % % % % % % % % % % % % % % % % % % % % % % % % % % % ",
"% % % % % % % % % % % % % % % % % % % % % % % % % % % % % % % % % % % % % % % % % % % % % % % % % % % % % % % % % % % % % % % % ",
"% % % % % % % % % % % % % % % % % % % % % % % % % % % % % % % % % % % % % % % % % % % % % % % % % % % % % % % % % % % % % % % % ",
"% % % % % % % % % % % % % % % % % % % % % % % % % % % % % % % % % % % % % % % % % % % % % % % % % % % % % % % % % % % % % % % % ",
"% % % % % % % % % % % % % % % % % % % % % % % % % % % % % % % % % % % % % % % % % % % % % % % % % % % % % % % % % % % % % % % % ",
"% % % % % % % % % % % % % % % % % % % % % % % % % % % % % % % % % % % % % % % % % % % % % % % % % % % % % % % % % % % % % % % % ",
"% % % % % % % % % % % % % % % % % % % % % % % % % % % % % % % % % % % % % % % % % % % % % % % % % % % % % % % % % % % % % % % % ",
"% % % % % % % % % % % % % % % % % % % % % % % % % % % % % % % % % % % % % % % % % % % % % % % % % % % % % % % % % % % % % % % % ",
"% % % % % % % % % % % % % % % % % % % % % % % % % % % % % % % % % % % % % % % % % % % % % % % % % % % % % % % % % % % % % % % % ",
"% % % % % % % % % % % % % % % % % % % % % % % % % % % % % % % % % % % % % % % % % % % % % % % % % % % % % % % % % % % % % % % % ",
"% % % % % % % % % % % % % % % % % % % % % % % % % % % % % % % % % % % % % % % % % % % % % % % % % % % % % % % % % % % % % % % % ",
"% % % % % % % % % % % % % % % % % % % % % % % % % % % % % % % % % % % % % % % % % % % % % % % % % % % % % % % % % % % % % % % % ",
"% % % % % % % % % % % % % % % % % % % % % % % % % % % % % % % % % % % % % % % % % % % % % % % % % % % % % % % % % % % % % % % % ",
"% % % % % % % % % % % % % % % % % % % % % % % % % % % % % % % % % % % % % % % % % % % % % % % % % % % % % % % % % % % % % % % % ",
"% % % % % % % % % % % % % % % % % % % % % % % % % % % % % % % % % % % % % % % % % % % % % % % % % % % % % % % % % % % % % % % % ",
"% % % % % % % % % % % % % % % % % % % % % % % % % % % % % % % % % % % % % % % % % % % % % % % % % % % % % % % % % % % % % % % % ",
"% % % % % % % % % % % % % % % % % % % % % % % % % % % % % % % % % % % % % % % % % % % % % % % % % % % % % % % % % % % % % % % % ",
"% % % % % % % % % % % % % % % % % % % % % % % % % % % % % % % % % % % % % % % % % % % % % % % % % % % % % % % % % % % % % % % % ",
"% % % % % % % % % % % % % % % % % % % % % % % % % % % % % % % % % % % % % % % % % % % % % % % % % % % % % % % % % % % % % % % % ",
"% % % % % % % % % % % % % % % % % % % % % % % % % % % % % % % % % % % % % % % % % % % % % % % % % % % % % % % % % % % % % % % % ",
"$ $ $ $ % % % % % % % % % % % % % % % % % % % % % % % % % % % % % % % % % % % % % % % % % % % % % % % % % % $ $ $ $ $ $ % % % % ",
"f g 4 # % % % % % % % % % % % % % % % % % % % % % % % % % % % % % % % % % % % % % % % % % % % % % % % % % 3 4 g g g 4 # % % % % ",
"6 h i b 3 $ % % % % % % % % % % % % % % % % % % % % % % % % % % % % % % % % % % % % % % % % % % % % % $ $ j k h 6 l 6 ] 4 $ % % ",
"| m ( 6 d 3 % % % % % % % % % % % % % % % % % % % % % % % % % % % % % % % % % % % % % % % % % % % % % 3 g n . m | | o l > $ % % ",
"~ p ~ . l & q $ % % % % % % % % % % % % % % % % % % % % % % % % % % % % % % % % % % % % % % % % % % % [ r   m p : 7 - s # $ % t ",
"7 | | u = n # $ % % % % % % % % % % % % % % % % % % % % % % % % % % % % % % % % % % % % % % % % % % % ; + 7 | | u v w x 9 # y z ",
"8 8 6 6 r ^ 3 % % % % % % % % % % % % % % % % % % % % % % % % % % % % % % % % % % % % % % % % % % % % j k 6 6 8 8 6 A c A B C D ",
"; 9 4 4 4 q % % % % % % % % % % % % % % % % % % % % % % % % % % % % % % % % % % % % % % % % % % % % % 3 # 4 4 2 5 6 ( _ | E F G ",
"c ; % H $ % % % % % % % % % % % % % % % % % % % % % % % % % % % % % % % % % % % % % % % % % % % % % % % $ H } [ 6 = m ! m E I J ",
"| c 5 # % % % % % % % % % % % % % % % % % % % % % % % % % % % % % % % % % % % % % % % % % % % % % % % % % # x r ( _ ~ K K L M N ",
"~ 7 * w # $ % % % % % % % % % % % % % % % % % % % % % % % % % % % % % % % % % % % % % % % % % % % % % % % ^ O . _ : P Q R S T U ",
"7 7 = V 4 $ % % % % % % % % % % % % % % % % % % % % % % % % % % % % % % % % % % % % % % % % % % % % % $ % W + ( 7 ( X Y Z `  ...",
"+.k n 5 q % % % % % % % % % % % % % % % % % % % % % % % % % % % % % % % % % % % % % % % % % % % % % % % % d @.k V @ r #.Z $.%.&.",
"# 3 q 3 % % % % % % % % % % % % % % % % % % % % % % % % % % % % % % % % % % % % % % % % % % % % % % % % % % 3 3 # 4 W *.Z =.-.;.",
"# H $ % % % % % % % % % % % % % % % % % % % % % % % % % % % % % % % % % % % % % % % % % % % % % % % % % % % $ >.% & v Q ,.'.).!.",
"g $ % % % % % % % % % % % % % % % % % % % % % % % % % % % % % % % % % % % % % % % % % % % % % % % % % % % % % $ 3 w   ~.{.].^./.",
"# % % % % % % % % % % % % % % % % % % % % % % % % % % % % % % % % % % % % % % % % % % % % % % % % % % % % % % % % d w 8 (._.:.<.",
"% % % % % % % % % % % % % % % % % % % % % % % % % % % % % % % % % % % % % % % % % % % % % % % % % % % % % % % % % % % [.}.|.1.2.",
"% % % % % % % % % % % % % % % % % % % % % % % % % % % % % % % % % % % % % % % % % % % % % % % % % % % % % % % % % % $ 3.4.5.6.7.",
"% % % % % % % % % % % % % % % % % % % % % % % % % % % % % % % % % % % % % % % % % % % % % % % % % % % % % % % % % 8.9.0.a.b.c.d."};
